<svg width="21" height="20" viewBox="0 0 21 20" fill="none" xmlns="http://www.w3.org/2000/svg">
  <circle cx="10.5" cy="10" r="10" fill="#FA2828" />
  <path d="M7.91602 7.41983C7.91602 7.02371 8.23127 6.7085 8.63379 6.7085H10.5844C12.1438 6.7085 13.084 7.62347 13.084 8.94571V8.96524C13.084 10.4632 11.9074 11.2387 10.4437 11.2387H9.35156V12.5805C9.35156 12.9794 9.03349 13.2918 8.63379 13.2918C8.23409 13.2918 7.91602 12.9766 7.91602 12.5805V7.41983ZM10.4887 9.97226C11.2065 9.97226 11.6259 9.54825 11.6259 8.99313V8.97361C11.6259 8.3348 11.1784 7.99448 10.4606 7.99448H9.35156V9.97226H10.4887Z" fill="white" />
</svg>