<svg width="21" height="20" viewBox="0 0 21 20" fill="none" xmlns="http://www.w3.org/2000/svg">
<g clip-path="url(#clip0_8891_3692)">
<path d="M15.4616 10.5569C15.4375 9.08955 16.0714 7.94774 17.3611 7.13032C16.6337 6.07242 15.5607 5.4778 14.1422 5.34507C13.6374 5.29765 12.9923 5.41691 12.2077 5.70594C11.3633 6.01882 10.8879 6.17456 10.7827 6.17456C10.5599 6.17456 10.132 6.04295 9.4978 5.77805C8.86502 5.51372 8.32513 5.38127 7.8798 5.38127C7.12944 5.39334 6.43128 5.60071 5.78644 6.00339C5.14159 6.40634 4.62583 6.95662 4.23915 7.6531C3.74583 8.51906 3.50002 9.55312 3.50002 10.755C3.50002 11.8367 3.68129 12.9185 4.04468 14.0011C4.3845 15.0351 4.81917 15.9426 5.34616 16.723C5.81478 17.4327 6.22671 17.9493 6.57748 18.2745C7.0823 18.7793 7.5975 19.0198 8.12589 18.9954C8.46571 18.9831 8.91104 18.8571 9.46216 18.616C9.97792 18.3887 10.4942 18.2745 11.0103 18.2745C11.491 18.2745 11.9888 18.3879 12.5054 18.616C13.0795 18.8571 13.549 18.9769 13.9124 18.9769C14.452 18.953 14.9557 18.7187 15.4254 18.2745C15.5887 18.1297 15.7681 17.9316 15.9614 17.6793C16.155 17.4265 16.3688 17.126 16.6037 16.7777C16.7673 16.5255 16.9287 16.255 17.0875 15.9662C17.246 15.6777 17.3894 15.3716 17.5185 15.0464C17.5766 14.9142 17.6294 14.7792 17.6765 14.6409C17.7231 14.5028 17.7702 14.362 17.8171 14.2174C17.3833 14.0258 16.9901 13.7539 16.6388 13.4053C15.8657 12.637 15.4734 11.6869 15.4616 10.5569Z" fill="black"/>
<path d="M13.2448 3.88552C13.8666 3.10402 14.1776 2.26247 14.1776 1.36059V1.18071C14.1776 1.1201 14.1717 1.06033 14.1602 1C13.7261 1.02413 13.2659 1.16247 12.779 1.41446C12.2924 1.66729 11.8911 1.98635 11.5738 2.37051C10.941 3.12844 10.6239 3.9394 10.6239 4.80509V4.97598C10.6239 5.0307 10.6298 5.08738 10.6413 5.14799C11.615 5.24396 12.4827 4.82305 13.2448 3.88581V3.88552Z" fill="black"/>
</g>
<defs>
<clipPath id="clip0_8891_3692">
<rect width="14.3179" height="17.9976" fill="white" transform="translate(3.50002 1)"/>
</clipPath>
</defs>
</svg>
