<svg width="21" height="20" viewBox="0 0 21 20" fill="none" xmlns="http://www.w3.org/2000/svg">
  <circle cx="10.5" cy="10" r="10" fill="#1C1C1A" />
  <path d="M11.6015 7.45277C11.8609 7.12972 12.0363 6.69534 11.9906 6.25C11.6124 6.26825 11.1484 6.50004 10.8816 6.8231C10.6405 7.10052 10.4285 7.55315 10.4833 7.97841C10.909 8.01492 11.3347 7.7667 11.6015 7.45095" fill="white" />
  <path d="M11.9858 8.06249C11.3683 8.02599 10.8421 8.41292 10.548 8.41292C10.2538 8.41292 9.80073 8.08074 9.31293 8.08987C8.67714 8.09899 8.08702 8.45854 7.76364 9.02981C7.10044 10.1724 7.58825 11.8679 8.23318 12.8006C8.54742 13.2605 8.92378 13.7679 9.42255 13.7496C9.89208 13.7314 10.0766 13.4448 10.6485 13.4448C11.2203 13.4448 11.3866 13.7496 11.8835 13.7405C12.4005 13.7314 12.7221 13.2788 13.0363 12.8188C13.3962 12.2932 13.5424 11.7876 13.5534 11.7584C13.5442 11.7493 12.5577 11.3715 12.5485 10.2381C12.5394 9.28899 13.3232 8.83817 13.3597 8.80897C12.9176 8.15557 12.2251 8.08074 11.9858 8.06249Z" fill="white" />
</svg>