<svg width="25" height="25" viewBox="0 0 25 25" fill="none" xmlns="http://www.w3.org/2000/svg">
<path fill-rule="evenodd" clip-rule="evenodd" d="M5.65234 5.66699C4.54777 5.66699 3.65234 6.56242 3.65234 7.66699V9.24191C3.65234 9.32013 3.65683 9.39729 3.66557 9.47317C3.65683 9.54904 3.65234 9.6262 3.65234 9.70442V17.4655C3.65234 18.57 4.54777 19.4655 5.65234 19.4655H15.297C16.4016 19.4655 17.297 18.57 17.297 17.4655V9.70442C17.297 8.59985 16.4016 7.70442 15.297 7.70442H10.3165V7.66699C10.3165 6.56242 9.42108 5.66699 8.31651 5.66699H5.65234Z" fill="#6FC0ED"/>
<path d="M7.05804 12.8172C7.41056 12.1815 8.08022 11.7871 8.8071 11.7871H18.5707C20.095 11.7871 21.059 13.424 20.3198 14.7571L18.2798 18.4355C17.9273 19.0712 17.2577 19.4656 16.5308 19.4656H5.06913C4.30698 19.4656 3.82498 18.6471 4.1946 17.9806L7.05804 12.8172Z" fill="#A5DEFF"/>
<path d="M3.69141 17.8476C3.86699 18.1458 4.41968 17.5527 4.61703 17.2274L4.85713 19.455C3.928 19.1875 3.76815 18.2242 3.69141 17.8476Z" fill="#A5DEFF"/>
</svg>
