<svg width="21" height="20" viewBox="0 0 21 20" fill="none" xmlns="http://www.w3.org/2000/svg">
<g clip-path="url(#clip0_8891_3683)">
<path d="M9.4111 9.24945L1.20027 17.7571C1.45583 18.6804 2.31318 19.3646 3.34366 19.3646C3.75585 19.3646 4.13506 19.2574 4.47306 19.0678L4.49779 19.0513L13.7391 13.8413L9.4111 9.24121V9.24945Z" fill="#EA4335"/>
<path d="M17.7212 7.7983L13.7312 5.53125L9.23828 9.43881L13.7476 13.841L17.7129 11.6069C18.4054 11.236 18.8835 10.527 18.8835 9.69437C18.8835 8.86175 18.4136 8.16102 17.7294 7.79005L17.7212 7.7983Z" fill="#FBBC04"/>
<path d="M1.20023 1.60742C1.15077 1.78879 1.12604 1.97015 1.12604 2.168V17.2047C1.12604 17.419 1.15077 17.5839 1.20023 17.7653L9.69135 9.47201L1.20023 1.60742Z" fill="#4285F4"/>
<path d="M9.47705 9.68647L13.7226 5.53983L4.48955 0.313264C4.15155 0.115413 3.76409 0 3.34366 0C2.32143 0 1.45583 0.684235 1.20027 1.60754L9.47705 9.67822V9.68647Z" fill="#34A853"/>
</g>
<defs>
<clipPath id="clip0_8891_3683">
<rect width="17.7489" height="19.3647" fill="white" transform="translate(1.12598)"/>
</clipPath>
</defs>
</svg>
