<svg width="25" height="25" viewBox="0 0 25 25" fill="none" xmlns="http://www.w3.org/2000/svg">
<path d="M9.75 18.7441H15.2473C15.2473 20.0775 14.1664 21.1584 12.833 21.1584H12.1643C10.8309 21.1584 9.75 20.0775 9.75 18.7441Z" fill="#EAB92D"/>
<path fill-rule="evenodd" clip-rule="evenodd" d="M12.4992 3.97461C9.51943 3.97461 6.95952 6.09085 6.39912 9.01749L5.59825 13.2C4.61772 13.3811 3.875 14.2405 3.875 15.2734C3.875 16.4379 4.81902 17.382 5.98353 17.382H19.0145C20.179 17.382 21.123 16.4379 21.123 15.2734C21.123 14.2407 20.3806 13.3813 19.4003 13.2001L18.5994 9.01749C18.039 6.09085 15.4791 3.97461 12.4992 3.97461Z" fill="#FFDB50"/>
</svg>
