<svg width="20" height="21" viewBox="0 0 20 21" fill="none" xmlns="http://www.w3.org/2000/svg">
<path d="M12.3782 3.08099C13.0009 2.30566 13.4218 1.26314 13.3122 0.194336C12.4046 0.238139 11.2908 0.794444 10.6506 1.56977C10.0719 2.23558 9.56322 3.32191 9.69477 4.34253C10.7164 4.43013 11.7381 3.83441 12.3782 3.07661" fill="white"/>
<path d="M13.2988 4.54392C11.8167 4.45631 10.5539 5.38494 9.84795 5.38494C9.142 5.38494 8.05457 4.58772 6.88384 4.60962C5.35794 4.63152 3.94166 5.49445 3.16555 6.8655C1.57388 9.6076 2.74461 13.6769 4.29244 15.9153C5.04662 17.0191 5.94988 18.2369 7.14693 18.1931C8.27381 18.1493 8.71668 17.4616 10.0891 17.4616C11.4615 17.4616 11.8606 18.1931 13.0532 18.1712C14.2941 18.1493 15.0658 17.063 15.82 15.9591C16.6838 14.6976 17.0346 13.4842 17.0609 13.4141C17.039 13.3922 14.6712 12.4855 14.6493 9.76529C14.6273 7.48751 16.5084 6.40556 16.5961 6.33548C15.535 4.76731 13.8732 4.58772 13.2988 4.54392Z" fill="white"/>
</svg>
