<svg width="52" height="52" viewBox="0 0 52 52" fill="none" xmlns="http://www.w3.org/2000/svg">
<rect width="52" height="52" rx="26" fill="#7ED4E5"/>
<path d="M36.2079 19.7681L36.6239 19.3521C37.6959 18.2801 37.8559 16.5201 36.8399 15.3921C35.7599 14.1921 33.9039 14.1521 32.7759 15.2801L32.2479 15.8081C31.7759 16.2801 31.0639 16.3521 30.4639 16.0641C29.2799 15.5041 27.8159 15.7121 26.8319 16.6961L26.2639 17.2641L34.7519 25.7521L35.3199 25.1841C36.3039 24.2001 36.5119 22.7441 35.9519 21.5521C35.6639 20.9521 35.7359 20.2401 36.2079 19.7681Z" fill="#FFDB50"/>
<path d="M34.7526 24.6154L27.3987 17.2615C26.1491 16.0118 24.1229 16.0118 22.8732 17.2615L13.8223 26.3125C12.5726 27.5622 12.5726 29.5883 13.8223 30.838L21.1762 38.1919C22.4259 39.4416 24.452 39.4416 25.7017 38.1919L34.7526 29.1409C36.0023 27.8912 36.0023 25.8651 34.7526 24.6154Z" fill="white"/>
<path d="M22.48 17.6592L25.7044 20.8836C26.1117 21.2909 26.1117 21.9471 25.7044 22.3544C25.2971 22.7617 24.6409 22.7617 24.2336 22.3544L21.0092 19.13L22.48 17.6592Z" fill="#D8E5FE"/>
<path d="M19.083 21.051L22.3074 24.2754C22.7147 24.6827 22.7147 25.3389 22.3074 25.7462C21.9001 26.1535 21.2439 26.1535 20.8366 25.7462L17.6122 22.5218L19.083 21.051Z" fill="#D8E5FE"/>
<path d="M15.6882 24.4568L18.9126 27.6812C19.3199 28.0885 19.3199 28.7447 18.9126 29.152C18.5053 29.5593 17.8492 29.5593 17.4419 29.152L14.2175 25.9276L15.6882 24.4568Z" fill="#D8E5FE"/>
</svg>
