<svg width="24" height="24" viewBox="0 0 24 24" fill="none" xmlns="http://www.w3.org/2000/svg">
<path d="M11.9992 21.8002H4.99922C3.45422 21.8002 2.19922 20.5452 2.19922 19.0002V12.0002C2.19922 6.5952 6.59422 2.2002 11.9992 2.2002C17.4042 2.2002 21.7992 6.5952 21.7992 12.0002C21.7992 17.4052 17.4042 21.8002 11.9992 21.8002ZM11.9992 3.8002C7.47922 3.8002 3.79922 7.4802 3.79922 12.0002V19.0002C3.79922 19.6602 4.33922 20.2002 4.99922 20.2002H11.9992C16.5192 20.2002 20.1992 16.5202 20.1992 12.0002C20.1992 7.4802 16.5192 3.8002 11.9992 3.8002Z" fill="#CED4DA"/>
<path d="M15.2492 10.5502H8.74922C8.30922 10.5502 7.94922 10.1902 7.94922 9.7502C7.94922 9.3102 8.30922 8.9502 8.74922 8.9502H15.2492C15.6892 8.9502 16.0492 9.3102 16.0492 9.7502C16.0492 10.1902 15.6892 10.5502 15.2492 10.5502Z" fill="#CED4DA"/>
<path d="M12.7492 15.0502H8.74922C8.30922 15.0502 7.94922 14.6902 7.94922 14.2502C7.94922 13.8102 8.30922 13.4502 8.74922 13.4502H12.7492C13.1892 13.4502 13.5492 13.8102 13.5492 14.2502C13.5492 14.6902 13.1892 15.0502 12.7492 15.0502Z" fill="#CED4DA"/>
</svg>
