<svg width="52" height="52" viewBox="0 0 52 52" fill="none" xmlns="http://www.w3.org/2000/svg">
<rect width="52" height="52" rx="26" fill="#7ED4E5"/>
<path d="M25.9999 39.5999C33.511 39.5999 39.5999 33.511 39.5999 25.9999C39.5999 18.4888 33.511 12.3999 25.9999 12.3999C18.4888 12.3999 12.3999 18.4888 12.3999 25.9999C12.3999 33.511 18.4888 39.5999 25.9999 39.5999Z" fill="#3E7BFA"/>
<path d="M25.9999 33.5999C26.8836 33.5999 27.5999 32.8836 27.5999 31.9999C27.5999 31.1162 26.8836 30.3999 25.9999 30.3999C25.1162 30.3999 24.3999 31.1162 24.3999 31.9999C24.3999 32.8836 25.1162 33.5999 25.9999 33.5999Z" fill="white"/>
<path d="M26 29.0478C25.208 29.0478 24.56 28.3998 24.56 27.6078C24.56 26.3278 25.296 25.0958 26.536 24.3198C27.04 24.0078 27.632 23.4878 27.6 22.7918C27.56 22.0318 26.88 21.3838 26.08 21.3518C25.608 21.3278 25.184 21.4878 24.864 21.7998C24.568 22.0878 24.4 22.4638 24.4 22.8638C24.4 23.6558 23.752 24.3038 22.96 24.3038C22.168 24.3038 21.52 23.6558 21.52 22.8638C21.52 21.6718 22 20.5518 22.872 19.7118C23.752 18.8638 24.976 18.4238 26.208 18.4718C28.496 18.5758 30.368 20.4078 30.48 22.6558C30.56 24.2798 29.696 25.7358 28.064 26.7598C27.688 26.9998 27.44 27.3278 27.44 27.6078C27.44 28.3998 26.792 29.0478 26 29.0478Z" fill="white"/>
</svg>
