<svg width="52" height="52" viewBox="0 0 52 52" fill="none" xmlns="http://www.w3.org/2000/svg">
<rect width="52" height="52" rx="26" fill="#F76D6D"/>
<path d="M36.9601 12.3999C36.3841 12.3999 35.9201 12.8639 35.9201 13.4399V20.1999C35.9201 21.5519 35.0481 22.6959 33.8401 23.1279V13.4399C33.8401 12.8639 33.3761 12.3999 32.8001 12.3999C32.2241 12.3999 31.7601 12.8639 31.7601 13.4399V23.1279C30.5521 22.6959 29.6801 21.5519 29.6801 20.1999V13.4399C29.6801 12.8639 29.2161 12.3999 28.6401 12.3999C28.0641 12.3999 27.6001 12.8639 27.6001 13.4399V20.1999C27.6001 22.7119 29.3921 24.8079 31.7601 25.2959V38.5599C31.7601 39.1359 32.2241 39.5999 32.8001 39.5999C33.3761 39.5999 33.8401 39.1359 33.8401 38.5599V25.2959C36.2081 24.8159 38.0001 22.7119 38.0001 20.1999V13.4399C38.0001 12.8639 37.5361 12.3999 36.9601 12.3999Z" fill="white"/>
<path d="M19.2 12.3999C16.328 12.3999 14 15.4479 14 19.1999C14 22.4879 15.784 25.2319 18.16 25.8639V38.5599C18.16 39.1359 18.624 39.5999 19.2 39.5999C19.776 39.5999 20.24 39.1359 20.24 38.5599V25.8639C22.616 25.2319 24.4 22.4879 24.4 19.1999C24.4 15.4479 22.072 12.3999 19.2 12.3999Z" fill="white"/>
</svg>
