<svg width="52" height="52" viewBox="0 0 52 52" fill="none" xmlns="http://www.w3.org/2000/svg">
<rect width="52" height="52" rx="26" fill="#FFDB50"/>
<path d="M35.1944 13.6334L35.0966 14.8615C34.8028 18.5538 31.5656 21.3137 27.8733 21.0199L26.6452 20.9222C26.071 20.8765 25.6453 20.3771 25.691 19.803L25.7887 18.5748C26.0825 14.8825 29.3197 12.1226 33.012 12.4164L34.2401 12.5142C34.8143 12.5599 35.24 13.0592 35.1944 13.6334Z" fill="#46C095"/>
<path d="M25.624 21.952H25.608C25.056 21.944 24.616 21.488 24.624 20.936C24.672 18.136 23.392 15.576 21.28 14.248C20.816 13.952 20.672 13.336 20.96 12.872C21.248 12.408 21.872 12.264 22.336 12.552C25.04 14.24 26.68 17.464 26.616 20.968C26.608 21.512 26.16 21.952 25.616 21.952H25.624Z" fill="#46C095"/>
<path d="M32.4481 18.1762C30.2081 17.6562 27.9201 18.2962 26.0001 19.7362C24.0721 18.2962 21.7921 17.6642 19.5521 18.1762C14.8881 19.2562 12.2001 24.8802 13.5521 30.7522C14.9041 36.6162 19.7841 40.4962 24.4561 39.4242C25.0001 39.2962 25.5201 39.1042 26.0081 38.8642C26.4961 39.1042 27.0081 39.3042 27.5601 39.4242C32.2241 40.5042 37.1041 36.6242 38.4641 30.7522C39.8161 24.8882 37.1281 19.2562 32.4641 18.1762H32.4481Z" fill="#F0464F"/>
<path d="M34.4 27.44C33.824 27.44 33.36 26.976 33.36 26.4C33.36 24.992 32.208 23.84 30.8 23.84C30.224 23.84 29.76 23.376 29.76 22.8C29.76 22.224 30.224 21.76 30.8 21.76C33.36 21.76 35.44 23.84 35.44 26.4C35.44 26.976 34.976 27.44 34.4 27.44Z" fill="#F5F5F5"/>
</svg>
