<svg width="32" height="32" viewBox="0 0 32 32" fill="none" xmlns="http://www.w3.org/2000/svg">
<rect x="0.5" y="0.5" width="31" height="31" rx="15.5" fill="white"/>
<rect x="0.5" y="0.5" width="31" height="31" rx="15.5" stroke="#F1F3F5"/>
<path d="M21.005 24H10.995C9.89 24 9 23.105 9 22V14H23V22C23 23.105 22.105 24 21.005 24Z" fill="#ECEEEF"/>
<path d="M14.3795 12.36C13.7895 12.36 13.1495 12.265 12.6245 11.955C11.6145 11.36 11.2795 10.055 11.8745 9.04501C12.1645 8.55501 12.6245 8.21001 13.1745 8.07001C13.7245 7.93001 14.2945 8.01001 14.7845 8.30001C16.1045 9.08001 16.5845 11.115 16.6345 11.34L16.7645 11.93L16.1845 12.1C16.0495 12.14 15.2695 12.36 14.3795 12.36ZM13.7045 9.30001C13.6345 9.30001 13.5645 9.31001 13.4995 9.32501C13.2845 9.38001 13.1095 9.51501 12.9945 9.70501C12.8845 9.89501 12.8495 10.115 12.9045 10.33C12.9595 10.545 13.0945 10.72 13.2845 10.835C13.7695 11.12 14.5745 11.085 15.1745 10.995C14.9695 10.425 14.6145 9.71001 14.1245 9.42001C13.9945 9.34501 13.8545 9.30501 13.7095 9.30501L13.7045 9.30001Z" fill="#8080F8"/>
<path d="M17.6204 12.36C16.7354 12.36 15.9554 12.14 15.8154 12.1L15.2354 11.93L15.3654 11.34C15.4154 11.11 15.8954 9.07501 17.2154 8.30001C17.7054 8.01001 18.2754 7.93001 18.8254 8.07001C19.3754 8.21001 19.8354 8.56001 20.1254 9.04501C20.7204 10.055 20.3854 11.355 19.3754 11.955C18.8504 12.265 18.2104 12.36 17.6204 12.36ZM16.8254 10.99C17.4254 11.085 18.2254 11.12 18.7104 10.83C18.9004 10.72 19.0354 10.54 19.0904 10.325C19.1454 10.11 19.1154 9.89001 19.0004 9.70001C18.8904 9.51001 18.7104 9.37501 18.4954 9.32001C18.2804 9.26501 18.0604 9.29501 17.8704 9.41001C17.3854 9.69501 17.0254 10.42 16.8204 10.985L16.8254 10.99Z" fill="#8080F8"/>
<path d="M22 11H10C8.89543 11 8 11.8954 8 13V14.5C8 15.6046 8.89543 16.5 10 16.5H22C23.1046 16.5 24 15.6046 24 14.5V13C24 11.8954 23.1046 11 22 11Z" fill="#8080F8"/>
<path d="M16.6496 16.5H15.3496V24H16.6496V16.5Z" fill="#B2BDC9"/>
<path d="M16.6496 11H15.3496V16.5H16.6496V11Z" fill="white"/>
</svg>
