<svg width="52" height="52" viewBox="0 0 52 52" fill="none" xmlns="http://www.w3.org/2000/svg">
<rect width="52" height="52" rx="26" fill="#FF8A56"/>
<path d="M19.4 22.7998C22.384 22.7998 24.8 25.2158 24.8 28.1998V37.9998C24.8 38.8798 24.08 39.5998 23.2 39.5998H15.6C14.72 39.5998 14 38.8798 14 37.9998V28.1998C14 25.2158 16.416 22.7998 19.4 22.7998Z" fill="#495057"/>
<path d="M34.4 12.3999C35.28 12.3999 36 13.1199 36 13.9999V24.3999H29.2V17.5999C29.2 14.7279 31.528 12.3999 34.4 12.3999Z" fill="#F0464F"/>
<path d="M29.9999 22H35.1999C36.0799 22 36.7999 22.72 36.7999 23.6V30H28.3999V23.6C28.3999 22.72 29.1199 22 29.9999 22Z" fill="#DADFE5"/>
<path d="M30.4 27.5999H34.8C36.568 27.5999 38 29.0319 38 30.7999V37.9999C38 38.8799 37.28 39.5999 36.4 39.5999H28.8C27.92 39.5999 27.2 38.8799 27.2 37.9999V30.7999C27.2 29.0319 28.632 27.5999 30.4 27.5999Z" fill="#495057"/>
</svg>
