<svg width="52" height="52" viewBox="0 0 52 52" fill="none" xmlns="http://www.w3.org/2000/svg">
<rect width="52" height="52" rx="26" fill="#F76D6D"/>
<path d="M35.6001 31.7998C35.6001 36.7758 31.3041 37.9998 26.0001 37.9998C20.6961 37.9998 16.4001 36.7758 16.4001 31.7998C16.4001 26.8238 20.6961 22.7998 26.0001 22.7998C31.3041 22.7998 35.6001 26.8318 35.6001 31.7998Z" fill="white"/>
<path d="M22.542 22.3214C24.4785 21.8903 25.6373 19.6949 25.1304 17.4178C24.6235 15.1407 22.6428 13.6441 20.7064 14.0752C18.77 14.5063 17.6111 16.7017 18.118 18.9788C18.6249 21.2559 20.6056 22.7524 22.542 22.3214Z" fill="white"/>
<path d="M38.2939 25.7568C39.6759 24.7349 40.0147 22.8496 39.0506 21.5458C38.0866 20.242 36.1847 20.0134 34.8028 21.0353C33.4208 22.0571 33.0821 23.9424 34.0461 25.2462C35.0102 26.55 36.912 26.7786 38.2939 25.7568Z" fill="white"/>
<path d="M17.9478 25.2525C18.9119 23.9487 18.5731 22.0634 17.1912 21.0416C15.8092 20.0197 13.9074 20.2483 12.9433 21.5521C11.9793 22.8559 12.318 24.7412 13.7 25.7631C15.082 26.7849 16.9838 26.5563 17.9478 25.2525Z" fill="white"/>
<path d="M33.8818 18.977C34.3888 16.6999 33.2299 14.5045 31.2935 14.0734C29.3571 13.6424 27.3764 15.1389 26.8695 17.416C26.3626 19.6931 27.5214 21.8885 29.4578 22.3196C31.3942 22.7506 33.3749 21.2541 33.8818 18.977Z" fill="white"/>
</svg>
