<svg width="24" height="25" viewBox="0 0 24 25" fill="none" xmlns="http://www.w3.org/2000/svg">
<g clip-path="url(#clip0_6117_119970)">
<rect y="0.5" width="24" height="24" rx="12" fill="#3E7BFA"/>
<path d="M16.2342 18.4878H8.24111C7.36008 18.4878 6.64648 17.7742 6.64648 16.8932V10.407H17.8288V16.8932C17.8288 17.7742 17.1152 18.4878 16.2342 18.4878Z" fill="white"/>
<path d="M10.9274 9.47407C10.4569 9.47407 9.94666 9.39833 9.52807 9.15116C8.72278 8.67676 8.45568 7.63626 8.93009 6.83098C9.16131 6.44029 9.52807 6.16522 9.96659 6.0536C10.4051 5.94197 10.8596 6.00576 11.2503 6.23698C12.3027 6.85888 12.6854 8.48142 12.7253 8.66081L12.829 9.13123L12.3665 9.26677C12.2589 9.29867 11.637 9.47407 10.9274 9.47407ZM10.3892 7.03429C10.3334 7.03429 10.2775 7.04227 10.2257 7.05423C10.0543 7.09808 9.91477 7.20572 9.82308 7.3572C9.73537 7.50869 9.70747 7.6841 9.75132 7.85553C9.79517 8.02695 9.90281 8.16648 10.0543 8.25817C10.441 8.4854 11.0828 8.4575 11.5612 8.38574C11.3978 7.93127 11.1147 7.36119 10.724 7.12997C10.6204 7.07017 10.5088 7.03828 10.3932 7.03828L10.3892 7.03429Z" fill="white"/>
<path d="M13.5071 9.47407C12.8014 9.47407 12.1795 9.29867 12.0679 9.26677L11.6055 9.13123L11.7091 8.66081C11.749 8.47743 12.1317 6.8549 13.1842 6.23698C13.5748 6.00576 14.0293 5.94197 14.4678 6.0536C14.9064 6.16522 15.2731 6.44428 15.5043 6.83098C15.9787 7.63626 15.7116 8.67277 14.9064 9.15116C14.4878 9.39833 13.9775 9.47407 13.5071 9.47407ZM12.8732 8.38175C13.3516 8.4575 13.9894 8.4854 14.3761 8.25418C14.5276 8.16648 14.6353 8.02296 14.6791 7.85154C14.723 7.68012 14.699 7.50471 14.6074 7.35322C14.5197 7.20173 14.3761 7.09409 14.2047 7.05024C14.0333 7.00639 13.8579 7.03031 13.7064 7.122C13.3197 7.34923 13.0327 7.92728 12.8692 8.37777L12.8732 8.38175Z" fill="white"/>
<path d="M16.8794 12.2888H7.59463C6.7136 12.2888 6 11.5512 6 10.6423V9.76128C6 8.85234 6.7136 8.11084 7.59463 8.11482H16.8794C17.7604 8.11482 18.474 8.85234 18.474 9.76526V10.6423C18.474 11.5512 17.7604 12.2888 16.8794 12.2888Z" fill="white"/>
<path d="M12.7572 12.2844H11.7207V18.4875H12.7572V12.2844Z" fill="#3E7BFA"/>
<path d="M6 12.0001L6 13.0001L18 13.0001L18 12.0001L6 12.0001Z" fill="#3E7BFA"/>
<path d="M12.7572 8.11481H11.7207V12.2848H12.7572V8.11481Z" fill="#3E7BFA"/>
</g>
<defs>
<clipPath id="clip0_6117_119970">
<rect width="24" height="24" fill="white" transform="translate(0 0.5)"/>
</clipPath>
</defs>
</svg>
