<svg width="52" height="52" viewBox="0 0 52 52" fill="none" xmlns="http://www.w3.org/2000/svg">
<rect width="52" height="52" rx="26" fill="#46C095"/>
<path d="M26.0001 39.5999C33.5112 39.5999 39.6001 33.511 39.6001 25.9999C39.6001 18.4888 33.5112 12.3999 26.0001 12.3999C18.4891 12.3999 12.4001 18.4888 12.4001 25.9999C12.4001 33.511 18.4891 39.5999 26.0001 39.5999Z" fill="white"/>
<path d="M23.8001 30.8H28.2001L30.7761 34.344L29.1921 39.208C32.7281 38.352 35.7121 36.128 37.5681 33.12H32.4561L29.9841 29.72L31.4081 25.336L35.4001 24.04L39.5361 27.048C39.5601 26.704 39.5921 26.36 39.5921 26.008C39.5921 22.64 38.3681 19.568 36.3441 17.2L34.7601 22.072L31.0401 23.28L27.0321 20.368V16.456L31.1841 13.44C29.5841 12.776 27.8321 12.408 25.9921 12.408C24.1521 12.408 22.4001 12.776 20.8001 13.44L24.9521 16.456V20.368L20.9441 23.28L17.2241 22.072L15.6401 17.2C13.6161 19.576 12.3921 22.648 12.3921 26.008C12.3921 26.36 12.4161 26.704 12.4481 27.048L16.5841 24.04L20.5761 25.336L22.0001 29.72L19.5281 33.12H14.4161C16.2721 36.128 19.2561 38.352 22.7921 39.208L21.2081 34.344L23.7841 30.8H23.8001Z" fill="#495057"/>
</svg>
