<svg width="36" height="36" viewBox="0 0 36 36" fill="none" xmlns="http://www.w3.org/2000/svg">
<rect width="36" height="36" rx="18" fill="#ECEEEF"/>
<path d="M23.9941 27.6H12.0061C10.6861 27.6 9.6121 26.526 9.6121 25.206L9.6001 17.4L12.5941 8.40002H23.4061L26.4001 17.4L26.3881 25.2C26.3881 26.526 25.3141 27.594 23.9941 27.594V27.6Z" fill="white"/>
<path d="M16.7999 21H19.1999C20.5259 21 21.5999 22.074 21.5999 23.4V27.6H14.3999V23.4C14.3999 22.074 15.4739 21 16.7999 21Z" fill="#ADB5BD"/>
<path d="M12.3601 8.40002C11.2981 8.40002 10.3681 9.09602 10.0621 10.11L8.50814 15.282C8.04614 16.824 9.19814 18.372 10.8061 18.372H12.2341C12.8581 18.372 13.3801 17.892 13.4281 17.268L14.1421 8.40002H12.3601Z" fill="#ADB5BD"/>
<path d="M23.6399 8.40002C24.7019 8.40002 25.6319 9.09602 25.9379 10.11L27.4919 15.282C27.9539 16.824 26.8019 18.372 25.1939 18.372H23.7659C23.1419 18.372 22.6199 17.892 22.5719 17.268L21.8579 8.40002H23.6399Z" fill="#ADB5BD"/>
<path d="M20.9703 17.4C19.2963 18.96 16.7043 18.96 15.0303 17.4L15.6303 8.40002H20.3703L20.9703 17.4Z" fill="#ADB5BD"/>
</svg>
