<svg width="32" height="32" viewBox="0 0 32 32" fill="none" xmlns="http://www.w3.org/2000/svg">
<rect x="0.5" y="0.5" width="31" height="31" rx="15.5" fill="white"/>
<rect x="0.5" y="0.5" width="31" height="31" rx="15.5" stroke="#F1F3F5"/>
<g clip-path="url(#clip0_7306_78150)">
<path d="M16.8998 7.945C18.0448 7.535 19.3198 7.945 20.0048 8.955C20.3548 9.465 20.8698 9.84 21.4648 10.015C22.6298 10.355 23.4198 11.44 23.3848 12.655C23.3648 13.275 23.5648 13.88 23.9398 14.37C24.6848 15.33 24.6848 16.675 23.9398 17.635C23.5598 18.125 23.3648 18.73 23.3848 19.35C23.4248 20.565 22.6348 21.65 21.4648 21.99C20.8698 22.165 20.3548 22.54 20.0048 23.05C19.3198 24.055 18.0448 24.47 16.8998 24.06C16.3148 23.85 15.6798 23.85 15.0948 24.06C13.9498 24.47 12.6748 24.06 11.9898 23.05C11.6398 22.54 11.1248 22.165 10.5298 21.99C9.36484 21.65 8.57484 20.565 8.60984 19.35C8.62984 18.73 8.42984 18.125 8.05484 17.635C7.30984 16.675 7.30984 15.33 8.05484 14.37C8.43484 13.88 8.62984 13.275 8.60984 12.655C8.56984 11.44 9.35984 10.355 10.5298 10.015C11.1248 9.84 11.6398 9.465 11.9898 8.955C12.6748 7.95 13.9498 7.535 15.0948 7.945C15.6798 8.155 16.3148 8.155 16.8998 7.945Z" fill="#FFDB50"/>
<path d="M18.85 15.35H16.65V13.15C16.65 12.79 16.36 12.5 16 12.5C15.64 12.5 15.35 12.79 15.35 13.15V15.35H13.15C12.79 15.35 12.5 15.64 12.5 16C12.5 16.36 12.79 16.65 13.15 16.65H15.35V18.85C15.35 19.21 15.64 19.5 16 19.5C16.36 19.5 16.65 19.21 16.65 18.85V16.65H18.85C19.21 16.65 19.5 16.36 19.5 16C19.5 15.64 19.21 15.35 18.85 15.35Z" fill="white"/>
</g>
<defs>
<clipPath id="clip0_7306_78150">
<rect width="20" height="20" fill="white" transform="translate(6 6)"/>
</clipPath>
</defs>
</svg>
