<svg width="24" height="24" viewBox="0 0 24 24" fill="none" xmlns="http://www.w3.org/2000/svg">
  <g clip-path="url(#clip0_6098_31801)">
    <path d="M20.6151 13.0702L20.3151 12.9002C20.0051 12.7202 19.8251 12.3702 19.8251 12.0002C19.8251 11.6302 20.0051 11.2802 20.3151 11.1002L20.6151 10.9302L20.5951 10.8902L20.6251 10.9302C21.5951 10.3702 21.9351 9.1202 21.3751 8.1302L20.0451 5.8202C19.4851 4.8502 18.2351 4.5102 17.2451 5.0702L16.9451 5.2402C16.6351 5.4202 16.2451 5.4002 15.9251 5.2202C15.5951 5.0402 15.3951 4.7002 15.3951 4.3402V4.0002C15.3951 2.8702 14.4751 1.9502 13.3451 1.9502H10.6751C9.54507 1.9502 8.62507 2.8702 8.62507 4.0002V4.3402C8.62507 4.7002 8.40507 5.0302 8.09507 5.2202C7.77507 5.4002 7.38507 5.4202 7.07507 5.2402L6.77507 5.0702C5.80507 4.5102 4.54507 4.8302 3.97507 5.8202L2.63507 8.1302C2.07507 9.1002 2.39507 10.3602 3.38507 10.9302L3.68507 11.1002C3.99507 11.2802 4.17507 11.6302 4.17507 12.0002C4.17507 12.3702 3.99507 12.7202 3.68507 12.9002L3.38507 13.0702L3.40507 13.1102L3.37507 13.0702C2.40507 13.6302 2.06507 14.8802 2.62507 15.8702L2.66507 15.8502H2.67507L2.63507 15.8702L3.96507 18.1802C4.52507 19.1502 5.77507 19.4902 6.76507 18.9302L7.06507 18.7602C7.37507 18.5802 7.76507 18.6002 8.08507 18.7802C8.41507 18.9602 8.61507 19.3002 8.61507 19.6602V20.0002C8.61507 21.1302 9.53507 22.0502 10.6651 22.0502H13.3351C14.4651 22.0502 15.3851 21.1302 15.3851 20.0002V19.6602C15.3851 19.3002 15.6051 18.9702 15.9151 18.7802C16.2351 18.6002 16.6251 18.5802 16.9351 18.7602L17.2351 18.9302C18.2051 19.4902 19.4651 19.1702 20.0351 18.1802L21.3651 15.8702C21.9251 14.9002 21.6051 13.6402 20.6151 13.0702ZM20.0051 15.0602L18.6751 17.3702C18.5551 17.5902 18.2851 17.6602 18.0651 17.5302L18.0351 17.5702L18.0551 17.5302L17.7551 17.3602C16.8751 16.8602 15.8751 16.9402 15.1251 17.3802C14.3751 17.8202 13.7951 18.6302 13.7951 19.6402V19.9802C13.7951 20.2302 13.5951 20.4302 13.3451 20.4302H10.6751C10.4251 20.4302 10.2251 20.2302 10.2251 19.9802V19.6402C10.2251 18.6302 9.63507 17.8002 8.89507 17.3802C8.14507 16.9402 7.13507 16.8602 6.26507 17.3602L5.96507 17.5302C5.74507 17.6602 5.47507 17.5802 5.35507 17.3702L4.02507 15.0602C3.89507 14.8402 3.97507 14.5702 4.18507 14.4502L4.48507 14.2802C5.35507 13.7802 5.78507 12.8602 5.78507 12.0002C5.78507 11.1402 5.35507 10.2202 4.48507 9.7202L4.18507 9.5502C3.96507 9.4202 3.89507 9.1502 4.02507 8.9402L5.35507 6.6302C5.48507 6.4102 5.75507 6.3402 5.96507 6.4702L6.26507 6.6402C7.14507 7.1402 8.14507 7.0602 8.89507 6.6202C9.64507 6.1802 10.2251 5.3702 10.2251 4.3602V4.0202C10.2251 3.7702 10.4251 3.5702 10.6751 3.5702H13.3451C13.5951 3.5702 13.7951 3.7702 13.7951 4.0202V4.3602C13.7951 5.3702 14.3851 6.2002 15.1251 6.6202C15.8751 7.0602 16.8851 7.1402 17.7551 6.6402L18.0551 6.4702L18.0351 6.4302L18.0651 6.4702C18.2851 6.3402 18.5551 6.4202 18.6751 6.6302L20.0051 8.9402C20.1351 9.1602 20.0551 9.4302 19.8451 9.5502L19.5451 9.7202C18.6751 10.2202 18.2451 11.1402 18.2451 12.0002C18.2451 12.8602 18.6751 13.7802 19.5451 14.2802L19.8451 14.4502C20.0651 14.5802 20.1351 14.8502 20.0051 15.0602Z" fill="#212529" />
    <path d="M11.9951 7.95996C9.75507 7.95996 7.94507 9.76996 7.94507 12.01C7.94507 14.25 9.75507 16.06 11.9951 16.06C14.2351 16.06 16.0451 14.25 16.0451 12.01C16.0451 9.76996 14.2351 7.95996 11.9951 7.95996ZM11.9951 14.46C10.6451 14.46 9.54507 13.36 9.54507 12.01C9.54507 10.66 10.6451 9.55996 11.9951 9.55996C13.3451 9.55996 14.4451 10.66 14.4451 12.01C14.4451 13.36 13.3451 14.46 11.9951 14.46Z" fill="#212529" />
  </g>
  <defs>
    <clipPath id="clip0_6098_31801">
      <rect width="19.29" height="20.08" fill="white" transform="translate(2.35498 1.95996)" />
    </clipPath>
  </defs>
</svg>