<svg width="52" height="52" viewBox="0 0 52 52" fill="none" xmlns="http://www.w3.org/2000/svg">
<rect width="52" height="52" rx="26" fill="#3E7BFA"/>
<path d="M35.6 13.2H16.4C14.6326 13.2 13.2 14.6326 13.2 16.4V30.7999C13.2 32.5673 14.6326 34 16.4 34H35.6C37.3673 34 38.8 32.5673 38.8 30.7999V16.4C38.8 14.6326 37.3673 13.2 35.6 13.2Z" fill="#F1F3F5"/>
<path d="M32.3999 37C32.3999 36.36 32.0719 35.808 31.5679 35.488C31.0639 35.168 30.7999 34.592 30.7999 34H21.1999C21.1999 34.592 20.9279 35.176 20.4319 35.488C19.9359 35.8 19.5999 36.36 19.5999 37C19.5999 37.928 20.3039 38.68 21.1999 38.776V38.8H30.7999V38.776C31.6959 38.672 32.3999 37.92 32.3999 37Z" fill="#F1F3F5"/>
<path d="M13.2 28.3999H38.8V30.7999C38.8 32.5679 37.368 33.9999 35.6 33.9999H16.4C14.632 33.9999 13.2 32.5679 13.2 30.7999V28.3999Z" fill="#C2C7D0"/>
</svg>
