<svg width="52" height="52" viewBox="0 0 52 52" fill="none" xmlns="http://www.w3.org/2000/svg">
<rect width="52" height="52" rx="26" fill="#6060DB"/>
<path d="M33.9998 14H17.9998C16.2325 14 14.7998 15.4327 14.7998 17.2V31.6C14.7998 33.3673 16.2325 34.8 17.9998 34.8H33.9998C35.7671 34.8 37.1998 33.3673 37.1998 31.6V17.2C37.1998 15.4327 35.7671 14 33.9998 14Z" fill="#FFDB50"/>
<path d="M16.8799 36.96V31.04C16.8799 30.4656 16.4143 30 15.8399 30C15.2655 30 14.7999 30.4656 14.7999 31.04V36.96C14.7999 37.5344 15.2655 38 15.8399 38C16.4143 38 16.8799 37.5344 16.8799 36.96Z" fill="white"/>
<path d="M37.2 36.96V31.04C37.2 30.4656 36.7343 30 36.16 30C35.5856 30 35.12 30.4656 35.12 31.04V36.96C35.12 37.5344 35.5856 38 36.16 38C36.7343 38 37.2 37.5344 37.2 36.96Z" fill="white"/>
<path d="M36.3999 23.6001H35.1999C33.4319 23.6001 31.9999 25.0321 31.9999 26.8001C31.9999 27.2401 31.6399 27.6001 31.1999 27.6001H20.7999C20.3599 27.6001 19.9999 27.2401 19.9999 26.8001C19.9999 25.0321 18.5679 23.6001 16.7999 23.6001H15.5999C13.8319 23.6001 12.3999 25.0321 12.3999 26.8001V30.2001C12.3999 33.1841 14.8159 35.6001 17.7999 35.6001H34.1999C37.1839 35.6001 39.5999 33.1841 39.5999 30.2001V26.8001C39.5999 25.0321 38.1679 23.6001 36.3999 23.6001Z" fill="#EAB92D"/>
</svg>
