<svg width="52" height="52" viewBox="0 0 52 52" fill="none" xmlns="http://www.w3.org/2000/svg">
<rect width="52" height="52" rx="26" fill="#3E7BFA"/>
<path d="M26.2667 39.8667C33.7778 39.8667 39.8667 33.7778 39.8667 26.2667C39.8667 18.7557 33.7778 12.6667 26.2667 12.6667C18.7557 12.6667 12.6667 18.7557 12.6667 26.2667C12.6667 33.7778 18.7557 39.8667 26.2667 39.8667Z" fill="white"/>
<path d="M25.7334 28C26.838 28 27.7334 27.1046 27.7334 26C27.7334 24.8954 26.838 24 25.7334 24C24.6288 24 23.7334 24.8954 23.7334 26C23.7334 27.1046 24.6288 28 25.7334 28Z" fill="#3E7BFA"/>
<path d="M19.3335 28C20.4381 28 21.3335 27.1046 21.3335 26C21.3335 24.8954 20.4381 24 19.3335 24C18.2289 24 17.3335 24.8954 17.3335 26C17.3335 27.1046 18.2289 28 19.3335 28Z" fill="#3E7BFA"/>
<path d="M32.1335 28C33.2381 28 34.1335 27.1046 34.1335 26C34.1335 24.8954 33.2381 24 32.1335 24C31.029 24 30.1335 24.8954 30.1335 26C30.1335 27.1046 31.029 28 32.1335 28Z" fill="#3E7BFA"/>
</svg>
