<svg width="52" height="52" viewBox="0 0 52 52" fill="none" xmlns="http://www.w3.org/2000/svg">
<rect width="52" height="52" rx="26" fill="#6060DB"/>
<path d="M39.3839 21.88L35.6719 15.448C35.2479 14.72 34.5599 14.184 33.7519 13.96L31.1919 13.256C30.2719 13 29.2879 13.6 29.1839 14.544C29.0319 15.944 28.0479 17.176 26.6479 17.448C24.6959 17.832 22.9759 16.432 22.8159 14.592C22.7279 13.624 21.7439 13 20.8079 13.256L18.2559 13.96C17.4479 14.184 16.7519 14.72 16.3359 15.448L12.6159 21.88C12.1759 22.648 12.4399 23.624 13.1999 24.064L17.1999 26.376V35.6C17.1999 37.368 18.6319 38.8 20.3999 38.8H31.5999C33.3679 38.8 34.7999 37.368 34.7999 35.6V26.376L38.7999 24.064C39.5679 23.624 39.8239 22.64 39.3839 21.88Z" fill="#FF8A56"/>
<path d="M34.7999 24.4001H17.2V28.4001H34.7999V24.4001Z" fill="white"/>
</svg>
