<svg width="52" height="52" viewBox="0 0 52 52" fill="none" xmlns="http://www.w3.org/2000/svg">
<rect width="52" height="52" rx="26" fill="#46C095"/>
<path d="M35.5999 17.9999H16.3999L17.3279 14.7519C17.7279 13.3599 18.9759 12.3999 20.3999 12.3999H31.5999C33.0239 12.3999 34.2719 13.3599 34.6719 14.7519L35.5999 17.9999Z" fill="#C2C7D0"/>
<path d="M31.096 39.5999H20.912C19.264 39.5999 17.88 38.3999 17.728 36.8239L16.408 23.5999H35.608L34.288 36.8239C34.128 38.3999 32.752 39.5999 31.104 39.5999H31.096Z" fill="white"/>
<path d="M35.6 17.2H16.4C14.6326 17.2 13.2 18.6326 13.2 20.4C13.2 22.1673 14.6326 23.6 16.4 23.6H35.6C37.3673 23.6 38.8 22.1673 38.8 20.4C38.8 18.6326 37.3673 17.2 35.6 17.2Z" fill="#DADFE5"/>
<path d="M25.9999 33.9998C27.9881 33.9998 29.5999 32.388 29.5999 30.3998C29.5999 28.4116 27.9881 26.7998 25.9999 26.7998C24.0117 26.7998 22.3999 28.4116 22.3999 30.3998C22.3999 32.388 24.0117 33.9998 25.9999 33.9998Z" fill="#1D9369"/>
</svg>
