<svg width="52" height="52" viewBox="0 0 52 52" fill="none" xmlns="http://www.w3.org/2000/svg">
<rect width="52" height="52" rx="26" fill="#FF8A56"/>
<path d="M14.752 19.4639H33.152V36.3999C33.152 38.1679 31.72 39.5999 29.952 39.5999H17.952C16.184 39.5999 14.752 38.1679 14.752 36.3999V19.4639Z" fill="#FFDB50"/>
<path d="M34.5121 34.8H33.1521V32.72H34.5121C35.7041 32.72 36.6721 31.752 36.6721 30.56V26.24C36.6721 25.048 35.7041 24.08 34.5121 24.08H33.1521V22H34.5121C36.8481 22 38.7521 23.904 38.7521 26.24V30.56C38.7521 32.896 36.8481 34.8 34.5121 34.8Z" fill="#FFDB50"/>
<path d="M34.672 18.3439C34.368 16.7199 33.112 15.3759 31.512 14.9519C30.856 14.7759 30.224 14.7599 29.632 14.8559C29.088 14.9439 28.528 14.7279 28.168 14.3199C27.144 13.1439 25.64 12.3999 23.952 12.3999C22.264 12.3999 20.76 13.1439 19.736 14.3199C19.376 14.7359 18.816 14.9519 18.272 14.8559C17.68 14.7519 17.048 14.7759 16.392 14.9519C14.792 15.3759 13.536 16.7199 13.232 18.3439C12.704 21.1519 14.84 23.5999 17.552 23.5999C17.968 23.5999 18.368 23.5199 18.752 23.4159V27.5999C18.752 28.9279 19.824 29.9999 21.152 29.9999C22.48 29.9999 23.552 28.9279 23.552 27.5999V24.6399C24.208 25.4639 25.216 25.9999 26.352 25.9999C27.936 25.9999 29.272 24.9679 29.752 23.5439C29.952 23.5679 30.152 23.5999 30.352 23.5999C33.064 23.5999 35.2 21.1519 34.672 18.3439Z" fill="#FFF9E1"/>
</svg>
