<svg width="32" height="32" viewBox="0 0 32 32" fill="none" xmlns="http://www.w3.org/2000/svg">
<rect x="0.5" y="0.5" width="31" height="31" rx="15.5" fill="white"/>
<rect x="0.5" y="0.5" width="31" height="31" rx="15.5" stroke="#F1F3F5"/>
<path d="M21 8.5H11C9.89543 8.5 9 9.39543 9 10.5V22.5C9 23.6046 9.89543 24.5 11 24.5H21C22.1046 24.5 23 23.6046 23 22.5V10.5C23 9.39543 22.1046 8.5 21 8.5Z" fill="#3E7BFA"/>
<path d="M18.5 7.5H13.5C12.9477 7.5 12.5 7.94772 12.5 8.5V9C12.5 9.55228 12.9477 10 13.5 10H18.5C19.0523 10 19.5 9.55228 19.5 9V8.5C19.5 7.94772 19.0523 7.5 18.5 7.5Z" fill="#A0BFFF"/>
<path d="M18.49 14.95C18.215 14.72 17.805 14.755 17.575 15.03L15.68 17.29L14.43 15.8C14.2 15.525 13.79 15.49 13.515 15.72C13.24 15.95 13.205 16.36 13.435 16.635L15.17 18.705C15.255 18.805 15.37 18.865 15.49 18.9C15.505 18.9 15.515 18.91 15.53 18.91C15.58 18.92 15.63 18.925 15.685 18.925C15.735 18.925 15.785 18.925 15.84 18.91C15.855 18.91 15.865 18.905 15.88 18.9C16 18.865 16.115 18.81 16.2 18.705L18.58 15.87C18.81 15.595 18.775 15.185 18.5 14.955L18.49 14.95Z" fill="white"/>
</svg>
