<svg width="46" height="28" viewBox="0 0 46 28" fill="none" xmlns="http://www.w3.org/2000/svg">
<g clip-path="url(#clip0_3114_10414)">
<path d="M20.8153 3.88463C20.8153 2.74395 19.8906 1.81925 18.7499 1.81925C17.6093 1.81925 16.6846 2.74395 16.6846 3.88463V17.8308C16.6846 18.9715 17.6093 19.8962 18.7499 19.8962C19.8906 19.8962 20.8153 18.9715 20.8153 17.8308V3.88463Z" fill="#3E7BFA"/>
<path d="M11.023 1.81925C9.88071 1.81925 8.95763 2.74617 8.95763 3.88463V6.73463C7.62686 5.91155 6.05763 5.43078 4.37686 5.43078V3.88463C4.37686 2.74232 3.44994 1.81925 2.31148 1.81925C1.16917 1.81925 0.246094 2.74617 0.246094 3.88463V12.1462C0.246094 14.4269 2.09609 16.2769 4.37686 16.2769H8.95763C11.2384 16.2769 13.0884 14.4269 13.0884 12.1462V3.88078C13.0884 2.73848 12.1615 1.8154 11.023 1.8154V1.81925ZM7.92302 12.6654H5.40763C4.8384 12.6654 4.37302 12.2039 4.37302 11.6308V9.04617C6.36148 9.04617 8.0884 10.1923 8.92686 11.8577C8.82302 12.3192 8.41148 12.6654 7.91917 12.6654H7.92302Z" fill="#3E7BFA"/>
<path d="M42.9153 1.81925C41.773 1.81925 40.8499 2.74617 40.8499 3.88463V6.98463H37.2576V3.88463C37.2576 2.74232 36.3307 1.81925 35.1922 1.81925C34.0538 1.81925 33.1269 2.74617 33.1269 3.88463V6.73463C31.7961 5.91155 30.2269 5.43078 28.5461 5.43078V3.88463C28.5461 2.74232 27.6192 1.81925 26.4807 1.81925C25.3384 1.81925 24.4153 2.74617 24.4153 3.88463V12.1462C24.4153 14.4269 26.2653 16.2769 28.5461 16.2769H33.1269C35.4076 16.2769 37.2576 14.4269 37.2576 12.1462V11.1116H40.8499V14.2116C40.8499 15.3539 41.7769 16.2769 42.9153 16.2769C44.0538 16.2769 44.9807 15.35 44.9807 14.2116V3.88078C44.9807 2.73848 44.0538 1.8154 42.9153 1.8154V1.81925ZM32.0922 12.6654H29.5769C29.0076 12.6654 28.5423 12.2039 28.5423 11.6308V9.04617C30.5307 9.04617 32.2576 10.1923 33.0961 11.8577C32.9922 12.3192 32.5807 12.6654 32.0884 12.6654H32.0922Z" fill="#3E7BFA"/>
<path d="M42.8921 21.9231C41.5959 21.9231 40.5267 21.6423 39.6151 21.0654L39.5805 21.0423L39.6074 21.0077C40.0459 20.4346 40.4305 19.8462 40.7421 19.2615C41.1651 18.4731 41.0075 17.4538 40.2382 16.7769C40.0382 16.6 39.7921 16.4769 39.5344 16.3962L39.4728 16.3769C39.1036 16.2615 38.7113 16.25 38.3305 16.35C37.7844 16.4962 37.3267 16.8846 37.0536 17.3769C35.5036 20.1731 32.569 21.9115 29.3728 21.9192C28.2344 21.9192 27.3075 22.8269 27.3075 23.9615V24.0077C27.3075 25.1385 28.2305 26.0538 29.3613 26.05C31.9113 26.05 34.3805 25.3038 36.5036 23.8962L36.5267 23.8808L36.5498 23.9C38.2651 25.3231 40.3959 26.0462 42.8844 26.05C44.0151 26.05 44.9421 25.1385 44.9421 24.0077V23.9615C44.9421 22.8346 44.019 21.9192 42.8882 21.9192L42.8921 21.9231Z" fill="#3E7BFA"/>
</g>
<defs>
<clipPath id="clip0_3114_10414">
<rect width="45.3846" height="25" fill="white" transform="translate(0 1.5)"/>
</clipPath>
</defs>
</svg>
