<svg width="91" height="51" viewBox="0 0 91 51" fill="none" xmlns="http://www.w3.org/2000/svg">
<path d="M41.6306 5.26932C41.6306 2.98796 39.7812 1.13855 37.4999 1.13855C35.2185 1.13855 33.3691 2.98796 33.3691 5.26932V33.1616C33.3691 35.443 35.2185 37.2924 37.4999 37.2924C39.7812 37.2924 41.6306 35.443 41.6306 33.1616V5.26932Z" fill="white"/>
<path d="M22.046 1.13855C19.7614 1.13855 17.9153 2.9924 17.9153 5.26932V10.9693C15.2537 9.32317 12.1153 8.36163 8.75373 8.36163V5.26932C8.75373 2.98471 6.89988 1.13855 4.62296 1.13855C2.33834 1.13855 0.492188 2.9924 0.492188 5.26932V21.7924C0.492188 26.3539 4.19219 30.0539 8.75373 30.0539H17.9153C22.4768 30.0539 26.1768 26.3539 26.1768 21.7924V5.26163C26.1768 2.97701 24.323 1.13086 22.046 1.13086V1.13855ZM15.846 22.8309H10.8153C9.6768 22.8309 8.74603 21.9078 8.74603 20.7616V15.5924C12.723 15.5924 16.1768 17.8847 17.8537 21.2155C17.646 22.1386 16.823 22.8309 15.8383 22.8309H15.846Z" fill="white"/>
<path d="M85.8307 1.13855C83.546 1.13855 81.6999 2.9924 81.6999 5.26932V11.4693H74.5153V5.26932C74.5153 2.98471 72.6614 1.13855 70.3845 1.13855C68.1076 1.13855 66.2537 2.9924 66.2537 5.26932V10.9693C63.5922 9.32317 60.4537 8.36163 57.0922 8.36163V5.26932C57.0922 2.98471 55.2383 1.13855 52.9614 1.13855C50.6768 1.13855 48.8307 2.9924 48.8307 5.26932V21.7924C48.8307 26.3539 52.5307 30.0539 57.0922 30.0539H66.2537C70.8153 30.0539 74.5153 26.3539 74.5153 21.7924V19.7232H81.6999V25.9232C81.6999 28.2078 83.5537 30.0539 85.8307 30.0539C88.1076 30.0539 89.9614 28.2001 89.9614 25.9232V5.26163C89.9614 2.97701 88.1076 1.13086 85.8307 1.13086V1.13855ZM64.1845 22.8309H59.1537C58.0153 22.8309 57.0845 21.9078 57.0845 20.7616V15.5924C61.0614 15.5924 64.5153 17.8847 66.1922 21.2155C65.9845 22.1386 65.1614 22.8309 64.1768 22.8309H64.1845Z" fill="white"/>
<path d="M85.7841 41.3462C83.1918 41.3462 81.0534 40.7847 79.2303 39.6308L79.1611 39.5847L79.2149 39.5154C80.0918 38.3693 80.8611 37.1924 81.4841 36.0231C82.3303 34.4462 82.0149 32.4077 80.4764 31.0539C80.0764 30.7001 79.5841 30.4539 79.0688 30.2924L78.9457 30.2539C78.2072 30.0231 77.4226 30.0001 76.6611 30.2001C75.5688 30.4924 74.6534 31.2693 74.1072 32.2539C71.0072 37.8462 65.138 41.3231 58.7457 41.3385C56.4688 41.3385 54.6149 43.1539 54.6149 45.4231V45.5154C54.6149 47.777 56.4611 49.6077 58.7226 49.6001C63.8226 49.6001 68.7611 48.1077 73.0072 45.2924L73.0534 45.2616L73.0995 45.3001C76.5303 48.1462 80.7918 49.5924 85.7687 49.6001C88.0303 49.6001 89.8841 47.777 89.8841 45.5154V45.4231C89.8841 43.1693 88.038 41.3385 85.7764 41.3385L85.7841 41.3462Z" fill="white"/>
</svg>
