<svg width="36" height="36" viewBox="0 0 36 36" fill="none" xmlns="http://www.w3.org/2000/svg">
<rect width="36" height="36" rx="18" fill="#FFDB50"/>
<path d="M24.3837 27.1202H11.2559C9.88058 27.1202 8.82652 25.9026 9.0238 24.5386L10.3202 15.6383C10.4837 14.5279 11.4307 13.7106 12.5523 13.7106H23.0872C24.2089 13.7106 25.1559 14.5335 25.3194 15.6383L26.6158 24.5386C26.8131 25.897 25.759 27.1202 24.3837 27.1202Z" fill="#8080F8"/>
<path d="M21.3455 16.6134C20.9396 16.6134 20.6127 16.2864 20.6127 15.8806V12.2562C20.6127 10.802 19.553 9.49427 18.0988 9.35336C16.4359 9.18989 15.0324 10.4976 15.0324 12.1322V15.8862C15.0324 16.2921 14.7055 16.619 14.2997 16.619C13.8938 16.619 13.5669 16.2921 13.5669 15.8862V12.2844C13.5669 10.1199 15.117 8.19221 17.2645 7.91601C19.8574 7.58345 22.0782 9.60701 22.0782 12.1379V15.8919C22.0782 16.2977 21.7513 16.6246 21.3455 16.6246V16.6134Z" fill="#5151D9"/>
</svg>
