<svg width="36" height="36" viewBox="0 0 36 36" fill="none" xmlns="http://www.w3.org/2000/svg">
<rect width="36" height="36" rx="18" fill="#ECEEEF"/>
<path d="M24.0738 26.5767H12.1584C10.845 26.5767 9.78125 25.5509 9.78125 24.2845V17.8261L12.7527 8.75452H23.4795L26.4509 17.8318V24.2845C26.4509 25.5509 25.3872 26.5767 24.0738 26.5767Z" fill="white"/>
<path d="M16.9606 20.6803H19.2783C20.5917 20.6803 21.6555 21.7061 21.6555 22.9725V26.5771H14.5835V22.9725C14.5835 21.7061 15.6473 20.6803 16.9606 20.6803Z" fill="#ADB5BD"/>
<path d="M12.7415 8.75464C11.6896 8.75464 10.7685 9.41939 10.4654 10.3879L8.92025 15.3276C8.46265 16.8004 9.60368 18.2789 11.1964 18.2789H12.4028C13.0208 18.2789 13.5378 17.8204 13.5854 17.2245L14.2926 8.75464H12.7356H12.7415Z" fill="#ADB5BD"/>
<path d="M27.3141 15.3275L25.7749 10.3877C25.4719 9.41927 24.5448 8.75452 23.4988 8.75452H21.9478L22.655 17.2243C22.7025 17.8203 23.2195 18.2788 23.8376 18.2788H25.044C26.6367 18.2788 27.7777 16.7946 27.3201 15.3275H27.3141Z" fill="#ADB5BD"/>
<path d="M21.0602 17.1327C19.4378 18.7086 16.7992 18.7086 15.1768 17.1327L15.771 8.75452H20.4659L21.0602 17.1327Z" fill="#ADB5BD"/>
</svg>
