<svg width="36" height="36" viewBox="0 0 36 36" fill="none" xmlns="http://www.w3.org/2000/svg">
<rect width="36" height="36" rx="18" fill="#46C095"/>
<path d="M24.8203 11.7851H11.1553L11.8157 9.52469C12.1004 8.55106 12.9887 7.88489 14.0022 7.88489H21.9734C22.9869 7.88489 23.8751 8.55106 24.1598 9.52469L24.8203 11.7851Z" fill="#C2C7D0"/>
<path d="M21.6093 27.1235H14.3611C13.1882 27.1235 12.2032 26.2296 12.095 25.0623L11.1555 15.2406H24.8205L23.8811 25.0623C23.7672 26.2296 22.7879 27.1235 21.615 27.1235H21.6093Z" fill="white"/>
<path d="M24.7179 10.8918H11.2522C10.0509 10.8918 9.07715 11.8656 9.07715 13.0669V13.0726C9.07715 14.2738 10.0509 15.2476 11.2522 15.2476H24.7179C25.9191 15.2476 26.8929 14.2738 26.8929 13.0726V13.0669C26.8929 11.8656 25.9191 10.8918 24.7179 10.8918Z" fill="#DADFE5"/>
<path d="M17.9877 23.1775C19.4028 23.1775 20.5499 22.0304 20.5499 20.6153C20.5499 19.2002 19.4028 18.0531 17.9877 18.0531C16.5727 18.0531 15.4255 19.2002 15.4255 20.6153C15.4255 22.0304 16.5727 23.1775 17.9877 23.1775Z" fill="#1D9369"/>
</svg>
