<svg width="52" height="52" viewBox="0 0 52 52" fill="none" xmlns="http://www.w3.org/2000/svg">
<rect width="52" height="52" rx="26" fill="#46C095"/>
<path d="M35.7404 17.6337H16.0021L16.9561 14.3686C17.3673 12.9622 18.6503 12 20.1142 12H31.6283C33.0922 12 34.3752 12.9622 34.7864 14.3686L35.7404 17.6337Z" fill="#C2C7D0"/>
<path d="M31.1021 39.7892H20.6325C18.9383 39.7892 17.5155 38.4979 17.3592 36.812L16.0022 22.625H35.7406L34.3836 36.812C34.2191 38.4979 32.8045 39.7892 31.1103 39.7892H31.1021Z" fill="white"/>
<path d="M35.5925 16.3438H16.1419C14.4068 16.3438 13.0002 17.7503 13.0002 19.4854V19.4937C13.0002 21.2288 14.4068 22.6354 16.1419 22.6354H35.5925C37.3276 22.6354 38.7341 21.2288 38.7341 19.4937V19.4854C38.7341 17.7503 37.3276 16.3438 35.5925 16.3438Z" fill="#DADFE5"/>
<path d="M25.8711 34.0894C27.9151 34.0894 29.5721 32.4324 29.5721 30.3884C29.5721 28.3445 27.9151 26.6875 25.8711 26.6875C23.8271 26.6875 22.1702 28.3445 22.1702 30.3884C22.1702 32.4324 23.8271 34.0894 25.8711 34.0894Z" fill="#1D9369"/>
</svg>
