<svg width="36" height="36" viewBox="0 0 36 36" fill="none" xmlns="http://www.w3.org/2000/svg">
<rect width="36" height="36" rx="18" fill="#FF8A56"/>
<path d="M23.4117 27.12C24.191 27.1769 24.8676 26.6303 24.928 25.8901L24.9642 25.4118L25.3025 25.4972C26.0577 25.6851 26.837 25.2637 27.0303 24.5463C27.2296 23.8345 26.7765 23.1057 26.0214 22.9178L24.5112 22.542L22.7774 20.401C22.3062 19.8145 21.4181 19.7063 20.7959 20.1504C20.5784 20.3042 20.4274 20.5092 20.3368 20.7312C20.1677 21.1469 20.222 21.6366 20.5362 22.0181L22.2397 24.1192L22.1129 25.6851C22.0525 26.4196 22.6384 27.0574 23.4177 27.1143L23.4117 27.12Z" fill="white"/>
<path d="M23.9069 20.2583C23.9069 20.1501 23.9069 20.0476 23.9069 19.9394C23.9069 19.9394 23.9069 19.9337 23.9069 19.928C23.8707 19.5238 23.7559 19.1252 23.5565 18.7551C23.5565 18.7437 23.5505 18.738 23.5445 18.7266C23.4297 18.4988 23.3391 18.2824 23.2545 18.0775L23.2182 17.9977C22.6021 16.3749 22.8679 15.1962 22.5356 13.3172C22.2336 11.4552 21.0676 9.71853 19.1164 8.6822C17.6424 7.90211 15.9327 7.70851 14.3379 8.03877C13.6734 8.12418 13.0149 8.32917 12.3927 8.67081C12.3625 8.68789 12.3263 8.70498 12.296 8.72775C9.77693 10.1741 8.53852 13.1065 9.29969 15.7941C9.87963 17.8326 11.3778 19.3245 13.2203 20.059C14.9239 20.7651 16.1442 20.8676 17.5095 21.6306L18.8747 22.5929C19.9742 23.3673 21.5207 23.4641 22.6141 22.684C22.8558 22.5132 23.0733 22.3082 23.2605 22.069C23.3209 21.995 23.3693 21.9153 23.4176 21.8356C23.7438 21.3686 23.913 20.822 23.919 20.2583H23.9069Z" fill="#FFDB50"/>
<path d="M12.8635 13.3909C13.2972 13.3909 13.6488 13.0391 13.6488 12.6051C13.6488 12.1711 13.2972 11.8193 12.8635 11.8193C12.4297 11.8193 12.0781 12.1711 12.0781 12.6051C12.0781 13.0391 12.4297 13.3909 12.8635 13.3909Z" fill="#EAB92D"/>
<path d="M18.2648 14.8716C18.6986 14.8716 19.0502 14.5198 19.0502 14.0858C19.0502 13.6518 18.6986 13.3 18.2648 13.3C17.8311 13.3 17.4795 13.6518 17.4795 14.0858C17.4795 14.5198 17.8311 14.8716 18.2648 14.8716Z" fill="#EAB92D"/>
<path d="M13.6491 17.4338C14.0828 17.4338 14.4344 17.082 14.4344 16.6481C14.4344 16.2141 14.0828 15.8623 13.6491 15.8623C13.2154 15.8623 12.8638 16.2141 12.8638 16.6481C12.8638 17.082 13.2154 17.4338 13.6491 17.4338Z" fill="#EAB92D"/>
</svg>
